<svg height="661" viewBox="0 0 2000 661" width="2000" xmlns="http://www.w3.org/2000/svg"><svg height="661" preserveAspectRatio="xMidYMid meet" transform="translate(-1.212121 -.353755)" viewBox="0 0 396 131" width="2000" xmlns="http://www.w3.org/2000/svg" xmlns:xlink="http://www.w3.org/1999/xlink"><g transform="translate(.24 .070109)"><svg height="130.859777" viewBox="0 0 395.52 130.85977695" width="395.52"><svg height="130.859777" viewBox="0 0 395.52 130.85977695" width="395.52"><svg height="130.859777" viewBox="0 0 395.52 130.85977695" width="395.52"><svg height="130.859777" viewBox="0 0 395.52 130.85977695" width="395.52"><svg height="130.859777" viewBox="0 0 395.52 130.85977695" width="395.52"><svg height="130.859777" viewBox=".77999997 -32.15000153 98.51000214 32.59000015" width="395.52"><path d="m14.04-12.55v3q.1.08.56.08.46 0 .71-.32.24-.32.24-1.12v-.47q0-.9-.21-1.29-.2-.39-.68-.39-.48 0-.65.1.03.12.03.41zm0-8.96v2.76q.1.07.56.07.46 0 .71-.36.24-.37.24-1.2v-.15q0-.87-.21-1.25-.2-.38-.68-.38-.48 0-.65.1.03.12.03.41zm-13.26 15.75v-22.39q0-.56.93-1.27 1.95-1.49 6.88-2.32 2.57-.41 5.64-.41 7.33 0 11.09 2.83 3.29 2.49 3.29 6.54 0 1.47-.51 2.87-.51 1.4-1.46 2.11-1.3-.66-2.49-.66-.57 0-.86.22-.29.22-.29.81 3.59.14 5.59 2.59 1.78 2.22 1.78 5.51 0 5.11-4.27 7.43-4.01 2.17-12.06 2.17-5.64 0-8.28-.36-2.63-.35-3.81-1.67-1.17-1.32-1.17-4zm45.58-10.28q.2.2.61.2.42 0 .71-.18-.64-3.71-.86-4.39-.26-.71-.8-.71-.25 0-.59.15zm-4.83 7.32q-.25.35-.25.64 0 .71 1.33 1.18 1.33.48 3.24.6.31 3.52.68 4.01-.46.9-2.56 1.81-2.1.92-4.74.92-3.49 0-5.98-1.5-2.49-1.5-2.49-3.87 0-.64.12-1.12l5.2-23.25q1.95-1.24 4.66-1.95 2.71-.71 5.64-.71 4.2 0 7.18 1.42 3.4 1.61 4.13 4.66l5.56 23.02q-2.53 3.3-8.27 3.3-2.79 0-4.71-1-1.93-1-2.25-2.86l-.54-2.98q1.47-.02 2.83-.56 1.37-.54 1.37-1.12 0-.39-.32-.64-.92.66-2.27 1.01-1.34.34-2.49.34-3.29 0-5.07-1.35zm49.94 9.16q-3.34 0-5.24-1.1-2.06-1.15-2.23-3.25l-.22-2.29q2.25-.54 3.79-2.78.41-.64.41-1.1 0-.64-.63-.64h-.07q-.03.03-.1.03-1.71 3.59-5.54 3.59-1.96 0-3.34-.86-1.38-.85-2.52-2.95h-.15q-.66 0-.66.56 0 .39.29.88.98 1.63 2.44 2.56 1.15.78 2.42.93l-.19 4.61q-1.47.95-3.09 1.38-1.63.43-4.62.43-2.99 0-5.33-1.17-2.88-1.44-2.88-4.01 0-3.19 1.27-15.79.68-6.57 1.1-9.18 2.51-2.25 7.42-2.25 3.56 0 5.91 1.32l1.34 4.49-.85 3.59q-.1.37-.1.71 0 .85.97.88l2.32-9.65q1-.53 2.62-.94 1.61-.4 3.51-.4 3.57 0 5.29 1.21 1.72 1.21 2.04 4.07.07.53.22 1.78 2.22 19.09 2.22 22.48-2.71 2.86-7.82 2.86z" fill="#f5fd00"/></svg></svg></svg></svg></svg></svg><path d="m0 0h395.52v130.859777h-395.52z" fill="none" visibility="hidden"/></g></svg></svg>